<svg xmlns="http://www.w3.org/2000/svg" xmlns:xlink="http://www.w3.org/1999/xlink" width="24" height="24" viewBox="0 0 24 24">
  <defs>
    <path id="cart_24_blue-sky-a" d="M8.42284237,5.59919586 L8.42284237,4.57715234 C8.42284237,2.60154565 10.024388,1 11.9999947,1 C13.9756014,1 15.5771471,2.60154565 15.5771471,4.57715234 L15.577147,5.59919586 L17.1155439,5.59919586 C19.3704356,5.59919586 21.3001204,7.43040721 21.425211,9.68203837 L21.9936054,19.9131368 C22.1188771,22.1680285 20.38845,23.9959793 18.1330429,23.9959793 L5.86694656,23.9959793 C3.609545,23.9959793 1.88129342,22.164768 2.00638404,19.9131368 L2.5747784,9.68203837 C2.70005016,7.42714672 4.63281434,5.59919586 6.8844455,5.59919586 L8.42284237,5.59919586 Z M9.4448859,5.59919586 L14.5551035,5.59919586 L14.5551035,4.57715234 C14.5551035,3.16600471 13.4111423,2.02204353 11.9999947,2.02204353 C10.5888471,2.02204353 9.4448859,3.16600471 9.4448859,4.57715234 L9.4448859,5.59919586 Z M8.42284237,6.62123939 L6.8844455,6.62123939 C5.17433126,6.62123939 3.69038045,8.02635324 3.59524834,9.73873115 L3.02685398,19.9698296 C2.93423386,21.6369917 4.1976535,22.9739358 5.86694656,22.9739358 L18.1330429,22.9739358 C19.8023765,22.9739358 21.0658238,21.6382195 20.9731354,19.9698296 L20.4047411,9.73873115 C20.3096521,8.0271289 18.8264327,6.62123939 17.1155439,6.62123939 L15.577147,6.62123939 L15.577147,7.45685681 L15.577147,8.16150397 L15.577147,10.7094135 C15.577147,10.991643 15.3483548,11.2204353 15.0661253,11.2204353 C14.7838957,11.2204353 14.5551035,10.991643 14.5551035,10.7094135 L14.5551035,8.16150396 L14.5551035,7.45685681 L14.5551035,6.62123939 L9.44488589,6.62123939 L9.44488589,7.446891 L9.44488589,8.17198363 L9.44488588,10.7094135 C9.44488588,10.991643 9.21609364,11.2204353 8.93386411,11.2204353 C8.65163459,11.2204353 8.42284235,10.991643 8.42284235,10.7094135 L8.42284236,8.17198363 L8.42284237,7.446891 L8.42284237,6.62123939 Z"/>
  </defs>
  <g fill="none" fill-rule="evenodd">
    <use fill="#fff" fill-rule="nonzero" xlink:href="#cart_24_blue-sky-a"/>
  </g>
</svg>
