<?xml version="1.0" encoding="UTF-8"?>
<svg width="24px" height="24px" viewBox="0 0 24 24" version="1.1" xmlns="http://www.w3.org/2000/svg" xmlns:xlink="http://www.w3.org/1999/xlink">
    <!-- Generator: Sketch 64 (93537) - https://sketch.com -->
    <title>XA_thinline-blue</title>
    <desc>Created with Sketch.</desc>
    <g id="App-banner-+-XA-updates" stroke="none" stroke-width="1" fill="none" fill-rule="evenodd">
        <g id="xm-header-update" transform="translate(-1339.000000, -734.000000)">
            <g id="XA_thinline-blue" transform="translate(1339.000000, 734.000000)">
                <rect id="Rectangle" x="0" y="0" width="24" height="24"></rect>
                <g id="XA_Icon-Thinline_Black" transform="translate(0.000000, 3.000000)" fill="#fff" fill-rule="nonzero">
                    <path d="M17.382716,0 L7.06172842,0 C2.55555555,0 0.024691358,3.47493579 0.024691358,6.4057535 C0.024691358,9.33657125 0,19.9097744 0,19.9097744 L6.76543212,16.5461355 L17.5061728,16.5461355 C21.0246914,16.5461355 24,13.466922 24,9.76939242 C24,6.34392192 23.9876543,8.34726568 23.9876543,6.34392192 C23.9876543,3.92012329 21.5925926,0 17.382716,0 M17.382716,1.18716668 C18.1925185,1.18716668 18.9602222,1.36445023 19.6644691,1.71407082 C20.2997778,2.02948617 20.8747408,2.47776525 21.3734074,3.04646755 C21.8241482,3.56051072 22.1968889,4.16030195 22.4512592,4.78099226 C22.6777284,5.33359361 22.8024691,5.88866823 22.8024691,6.34392192 C22.8024691,7.2239834 22.8048889,7.343912 22.8076543,7.48276102 C22.8108395,7.64203922 22.8148148,7.84024656 22.8148148,9.76939242 C22.8148148,12.7992644 20.3837531,15.3589688 17.5061728,15.3589688 L6.76543212,15.3589688 L6.4874815,15.3589688 L6.23849383,15.4827557 L1.18953086,17.9929949 C1.19661728,14.8003575 1.20987654,8.54065017 1.20987654,6.4057535 C1.20987654,5.19583281 1.76849383,3.89660255 2.70412346,2.93037254 C3.22125926,2.3963454 3.83407408,1.97598946 4.52558025,1.68097854 C5.29362963,1.35332054 6.14691356,1.18716668 7.06172842,1.18716668 L17.382716,1.18716668" id="Fill-1"></path>
                    <path d="M9.7443609,7.66917293 C9.7443609,8.54950093 9.04416914,9.26315789 8.18045113,9.26315789 C7.31673305,9.26315789 6.61654135,8.54950093 6.61654135,7.66917293 C6.61654135,6.78884493 7.31673305,6.07518797 8.18045113,6.07518797 C9.04416914,6.07518797 9.7443609,6.78884493 9.7443609,7.66917293" id="Fill-3"></path>
                    <path d="M15.8195489,9.26315789 C14.9558064,9.26315789 14.2556391,8.54950093 14.2556391,7.66917293 C14.2556391,6.78884493 14.9558064,6.07518797 15.8195489,6.07518797 C16.6832914,6.07518797 17.3834586,6.78884493 17.3834586,7.66917293 C17.3834586,8.54950093 16.6832914,9.26315789 15.8195489,9.26315789 Z" id="Fill-5"></path>
                </g>
            </g>
        </g>
    </g>
</svg>